<mxfile host="65bd71144e">
    <diagram id="EPzmnkyFrrzmDoTjYzm7" name="Page-1">
        <mxGraphModel dx="210" dy="81" grid="1" gridSize="10" guides="1" tooltips="1" connect="1" arrows="1" fold="1" page="1" pageScale="1" pageWidth="1100" pageHeight="1000" math="0" shadow="0">
            <root>
                <mxCell id="0"/>
                <mxCell id="1" parent="0"/>
                <mxCell id="95" value="" style="endArrow=classic;dashed=1;html=1;fontFamily=Helvetica;fontColor=#000000;dashPattern=1 2;entryX=0.5;entryY=0;entryDx=0;entryDy=0;edgeStyle=orthogonalEdgeStyle;endFill=1;fontSize=16;" parent="1" target="205" edge="1">
                    <mxGeometry width="50" height="50" relative="1" as="geometry">
                        <mxPoint x="760" y="150" as="sourcePoint"/>
                        <mxPoint x="590" y="530" as="targetPoint"/>
                        <Array as="points">
                            <mxPoint x="720" y="150"/>
                            <mxPoint x="720" y="530"/>
                            <mxPoint x="550" y="530"/>
                        </Array>
                    </mxGeometry>
                </mxCell>
                <mxCell id="204" value="" style="rounded=0;whiteSpace=wrap;html=1;fontFamily=Source Code Pro;strokeWidth=1;align=left;verticalAlign=top;spacingTop=0;fontSize=16;" parent="1" vertex="1">
                    <mxGeometry x="420" y="650" width="260" height="100" as="geometry"/>
                </mxCell>
                <mxCell id="151" value="" style="rounded=0;whiteSpace=wrap;html=1;labelBackgroundColor=none;fontFamily=Helvetica;fontColor=#000000;strokeColor=#000000;strokeWidth=1;fontSize=16;" parent="1" vertex="1">
                    <mxGeometry x="0.5" width="340" height="740" as="geometry"/>
                </mxCell>
                <mxCell id="112" value="" style="rounded=0;whiteSpace=wrap;html=1;fontFamily=Source Code Pro;strokeWidth=1;align=left;verticalAlign=top;spacingTop=0;fontSize=16;" parent="1" vertex="1">
                    <mxGeometry x="40.5" y="280" width="259.5" height="80" as="geometry"/>
                </mxCell>
                <mxCell id="90" value="" style="rounded=0;whiteSpace=wrap;html=1;labelBackgroundColor=none;fontFamily=Helvetica;fontColor=#000000;strokeColor=#000000;strokeWidth=1;fontSize=16;" parent="1" vertex="1">
                    <mxGeometry x="760" width="340" height="480" as="geometry"/>
                </mxCell>
                <mxCell id="84" value="" style="rounded=0;whiteSpace=wrap;html=1;labelBackgroundColor=none;fontFamily=Source Code Pro;fontColor=#000000;strokeColor=#000000;strokeWidth=1;fontSize=16;" parent="1" vertex="1">
                    <mxGeometry x="840" y="300" width="180" height="140" as="geometry"/>
                </mxCell>
                <mxCell id="71" value="" style="endArrow=classic;html=1;fontFamily=Source Code Pro;fontColor=#000000;exitX=0.5;exitY=1;exitDx=0;exitDy=0;entryX=0.5;entryY=0;entryDx=0;entryDy=0;fontSize=16;" parent="1" source="59" target="206" edge="1">
                    <mxGeometry width="50" height="50" relative="1" as="geometry">
                        <mxPoint x="910" y="20" as="sourcePoint"/>
                        <mxPoint x="910.0000000000002" y="110" as="targetPoint"/>
                    </mxGeometry>
                </mxCell>
                <mxCell id="3" value="Server" style="rounded=0;whiteSpace=wrap;html=1;fontStyle=1;fontSize=16;" parent="1" vertex="1">
                    <mxGeometry x="760" width="60" height="20" as="geometry"/>
                </mxCell>
                <mxCell id="4" value="Client Session" style="rounded=0;whiteSpace=wrap;html=1;fontStyle=1;fontSize=16;" parent="1" vertex="1">
                    <mxGeometry width="130" height="20" as="geometry"/>
                </mxCell>
                <mxCell id="25" value="" style="endArrow=classic;html=1;fontFamily=Source Code Pro;dashed=1;exitX=1;exitY=0.5;exitDx=0;exitDy=0;edgeStyle=orthogonalEdgeStyle;fontSize=16;" parent="1" edge="1">
                    <mxGeometry width="50" height="50" relative="1" as="geometry">
                        <mxPoint x="680" y="120" as="sourcePoint"/>
                        <mxPoint x="760" y="55" as="targetPoint"/>
                        <Array as="points">
                            <mxPoint x="720" y="120"/>
                            <mxPoint x="720" y="55"/>
                            <mxPoint x="760" y="55"/>
                        </Array>
                    </mxGeometry>
                </mxCell>
                <mxCell id="26" value="" style="rounded=0;whiteSpace=wrap;html=1;fontFamily=Source Code Pro;strokeWidth=1;align=left;verticalAlign=top;spacingTop=0;fontSize=16;" parent="1" vertex="1">
                    <mxGeometry x="420" y="70" width="260" height="100" as="geometry"/>
                </mxCell>
                <mxCell id="27" value="&lt;span style=&quot;color: rgb(0, 0, 0); font-family: &amp;quot;source code pro&amp;quot;; font-size: 16px; font-style: normal; font-weight: 400; letter-spacing: normal; text-align: left; text-indent: 0px; text-transform: none; word-spacing: 0px; display: inline; float: none;&quot;&gt;POST /message/72/private&lt;/span&gt;" style="text;html=1;align=center;verticalAlign=middle;whiteSpace=wrap;rounded=0;fontFamily=Source Code Pro;labelBackgroundColor=none;strokeColor=default;fontSize=16;" parent="1" vertex="1">
                    <mxGeometry x="420" y="70" width="260" height="20" as="geometry"/>
                </mxCell>
                <mxCell id="29" value="" style="group;fontSize=16;" parent="1" vertex="1" connectable="0">
                    <mxGeometry x="80" y="40" width="120" height="80" as="geometry"/>
                </mxCell>
                <mxCell id="5" value="" style="rounded=0;whiteSpace=wrap;html=1;fontSize=16;" parent="29" vertex="1">
                    <mxGeometry width="120" height="80" as="geometry"/>
                </mxCell>
                <mxCell id="6" value="" style="rounded=1;whiteSpace=wrap;html=1;fillColor=#f8cecc;strokeColor=#b85450;fontSize=16;" parent="29" vertex="1">
                    <mxGeometry x="40" y="10" width="40" height="20" as="geometry"/>
                </mxCell>
                <mxCell id="7" value="" style="rounded=1;whiteSpace=wrap;html=1;fillColor=#d5e8d4;strokeColor=#82b366;fontSize=16;" parent="29" vertex="1">
                    <mxGeometry x="75" y="40" width="40" height="20" as="geometry"/>
                </mxCell>
                <mxCell id="9" style="edgeStyle=orthogonalEdgeStyle;html=1;entryX=0.5;entryY=0;entryDx=0;entryDy=0;fontSize=16;" parent="29" source="6" target="7" edge="1">
                    <mxGeometry relative="1" as="geometry">
                        <mxPoint x="45" y="20" as="targetPoint"/>
                        <Array as="points">
                            <mxPoint x="95" y="20"/>
                        </Array>
                    </mxGeometry>
                </mxCell>
                <mxCell id="8" value="" style="rounded=1;whiteSpace=wrap;html=1;fillColor=#dae8fc;strokeColor=#6c8ebf;fontSize=16;" parent="29" vertex="1">
                    <mxGeometry x="5" y="50" width="40" height="20" as="geometry"/>
                </mxCell>
                <mxCell id="10" style="edgeStyle=orthogonalEdgeStyle;html=1;fontSize=16;" parent="29" source="7" target="8" edge="1">
                    <mxGeometry relative="1" as="geometry"/>
                </mxCell>
                <mxCell id="28" value="72" style="rounded=0;whiteSpace=wrap;html=1;labelBackgroundColor=none;fontFamily=Source Code Pro;strokeWidth=1;fontSize=16;" parent="29" vertex="1">
                    <mxGeometry width="30" height="30" as="geometry"/>
                </mxCell>
                <mxCell id="40" value="Patch" style="rounded=0;whiteSpace=wrap;html=1;labelBackgroundColor=none;fontFamily=Helvetica;strokeWidth=1;fontSize=16;" parent="1" vertex="1">
                    <mxGeometry x="430" y="100" width="120" height="60" as="geometry"/>
                </mxCell>
                <mxCell id="41" value="Reverse Patch&lt;br style=&quot;font-size: 16px;&quot;&gt;(Client)" style="rounded=0;whiteSpace=wrap;html=1;labelBackgroundColor=none;fontFamily=Helvetica;strokeWidth=1;strokeColor=#666666;fontColor=#666666;fontSize=16;" parent="1" vertex="1">
                    <mxGeometry x="550" y="100" width="120" height="60" as="geometry"/>
                </mxCell>
                <mxCell id="74" value="" style="endArrow=classic;html=1;fontFamily=Source Code Pro;fontColor=#000000;exitX=0.5;exitY=1;exitDx=0;exitDy=0;fontSize=16;entryX=0.75;entryY=0;entryDx=0;entryDy=0;edgeStyle=orthogonalEdgeStyle;" parent="1" source="206" target="31" edge="1">
                    <mxGeometry width="50" height="50" relative="1" as="geometry">
                        <mxPoint x="910.0000000000002" y="190" as="sourcePoint"/>
                        <mxPoint x="910" y="250" as="targetPoint"/>
                        <Array as="points">
                            <mxPoint x="930" y="280"/>
                            <mxPoint x="960" y="280"/>
                        </Array>
                    </mxGeometry>
                </mxCell>
                <mxCell id="79" value="" style="rounded=1;whiteSpace=wrap;html=1;fontFamily=Source Code Pro;strokeWidth=3;arcSize=50;fontSize=16;" parent="1" vertex="1">
                    <mxGeometry x="860" y="230" width="140" height="30" as="geometry"/>
                </mxCell>
                <mxCell id="80" value="5" style="ellipse;whiteSpace=wrap;html=1;aspect=fixed;fontFamily=Source Code Pro;strokeWidth=3;fontSize=16;" parent="1" vertex="1">
                    <mxGeometry x="860" y="230" width="30" height="30" as="geometry"/>
                </mxCell>
                <mxCell id="81" value="Apply Patch" style="text;html=1;strokeColor=none;fillColor=none;align=center;verticalAlign=middle;whiteSpace=wrap;rounded=0;fontFamily=Helvetica;fontSize=16;" parent="1" vertex="1">
                    <mxGeometry x="890" y="230" width="110" height="30" as="geometry"/>
                </mxCell>
                <mxCell id="85" value="Database" style="rounded=0;whiteSpace=wrap;html=1;labelBackgroundColor=none;fontFamily=Source Code Pro;fontColor=#000000;strokeColor=#000000;strokeWidth=1;fontStyle=1;fontSize=16;" parent="1" vertex="1">
                    <mxGeometry x="840" y="300" width="90" height="20" as="geometry"/>
                </mxCell>
                <mxCell id="30" value="" style="group;fontSize=16;" parent="1" vertex="1" connectable="0">
                    <mxGeometry x="870" y="330" width="120" height="80" as="geometry"/>
                </mxCell>
                <mxCell id="31" value="" style="rounded=0;whiteSpace=wrap;html=1;fontSize=16;" parent="30" vertex="1">
                    <mxGeometry width="120" height="80" as="geometry"/>
                </mxCell>
                <mxCell id="32" value="" style="rounded=1;whiteSpace=wrap;html=1;fillColor=#f8cecc;strokeColor=#b85450;fontSize=16;" parent="30" vertex="1">
                    <mxGeometry x="40" y="10" width="40" height="20" as="geometry"/>
                </mxCell>
                <mxCell id="33" value="" style="rounded=1;whiteSpace=wrap;html=1;fillColor=#d5e8d4;strokeColor=#82b366;fontSize=16;" parent="30" vertex="1">
                    <mxGeometry x="75" y="40" width="40" height="20" as="geometry"/>
                </mxCell>
                <mxCell id="34" style="edgeStyle=orthogonalEdgeStyle;html=1;fontSize=16;exitX=1;exitY=0.5;exitDx=0;exitDy=0;" parent="30" source="32" target="33" edge="1">
                    <mxGeometry relative="1" as="geometry">
                        <mxPoint x="85" y="120" as="targetPoint"/>
                    </mxGeometry>
                </mxCell>
                <mxCell id="35" value="" style="rounded=1;whiteSpace=wrap;html=1;fillColor=#dae8fc;strokeColor=#6c8ebf;fontSize=16;" parent="30" vertex="1">
                    <mxGeometry x="5" y="50" width="40" height="20" as="geometry"/>
                </mxCell>
                <mxCell id="36" style="edgeStyle=orthogonalEdgeStyle;html=1;fontSize=16;" parent="30" source="33" target="35" edge="1">
                    <mxGeometry relative="1" as="geometry"/>
                </mxCell>
                <mxCell id="37" value="72" style="rounded=0;whiteSpace=wrap;html=1;labelBackgroundColor=none;fontFamily=Source Code Pro;strokeWidth=1;fontSize=16;" parent="30" vertex="1">
                    <mxGeometry width="30" height="30" as="geometry"/>
                </mxCell>
                <mxCell id="86" value="" style="endArrow=classic;html=1;fontFamily=Source Code Pro;fontColor=#000000;entryX=1;entryY=0.5;entryDx=0;entryDy=0;fontSize=16;exitX=1;exitY=0.5;exitDx=0;exitDy=0;edgeStyle=orthogonalEdgeStyle;" parent="1" source="31" target="61" edge="1">
                    <mxGeometry width="50" height="50" relative="1" as="geometry">
                        <mxPoint x="970" y="290" as="sourcePoint"/>
                        <mxPoint x="999" y="52" as="targetPoint"/>
                        <Array as="points">
                            <mxPoint x="1080" y="370"/>
                            <mxPoint x="1080" y="55"/>
                        </Array>
                    </mxGeometry>
                </mxCell>
                <mxCell id="87" value="" style="rounded=1;whiteSpace=wrap;html=1;fontFamily=Source Code Pro;strokeWidth=3;arcSize=50;fontSize=16;" parent="1" vertex="1">
                    <mxGeometry x="410" y="570" width="280" height="30" as="geometry"/>
                </mxCell>
                <mxCell id="88" value="6" style="ellipse;whiteSpace=wrap;html=1;aspect=fixed;fontFamily=Source Code Pro;strokeWidth=3;fontSize=16;" parent="1" vertex="1">
                    <mxGeometry x="410" y="570" width="30" height="30" as="geometry"/>
                </mxCell>
                <mxCell id="89" value="Propagate Patch via Websocket" style="text;html=1;strokeColor=none;fillColor=none;align=center;verticalAlign=middle;whiteSpace=wrap;rounded=0;fontFamily=Helvetica;fontSize=16;" parent="1" vertex="1">
                    <mxGeometry x="440" y="570" width="250" height="30" as="geometry"/>
                </mxCell>
                <mxCell id="91" value="" style="endArrow=classic;html=1;fontFamily=Helvetica;fontColor=#000000;entryX=0;entryY=0.5;entryDx=0;entryDy=0;fontSize=16;" parent="1" target="60" edge="1">
                    <mxGeometry width="50" height="50" relative="1" as="geometry">
                        <mxPoint x="760" y="55" as="sourcePoint"/>
                        <mxPoint x="810" y="50" as="targetPoint"/>
                    </mxGeometry>
                </mxCell>
                <mxCell id="94" value="" style="endArrow=classic;html=1;fontFamily=Helvetica;fontColor=#000000;exitX=0;exitY=0.5;exitDx=0;exitDy=0;fontSize=16;" parent="1" edge="1">
                    <mxGeometry width="50" height="50" relative="1" as="geometry">
                        <mxPoint x="800.0000000000002" y="150" as="sourcePoint"/>
                        <mxPoint x="760" y="150" as="targetPoint"/>
                    </mxGeometry>
                </mxCell>
                <mxCell id="22" value="" style="rounded=1;whiteSpace=wrap;html=1;fontFamily=Source Code Pro;strokeWidth=3;arcSize=50;fontSize=16;" parent="1" vertex="1">
                    <mxGeometry x="131" y="110" width="119" height="30" as="geometry"/>
                </mxCell>
                <mxCell id="20" value="1" style="ellipse;whiteSpace=wrap;html=1;aspect=fixed;fontFamily=Source Code Pro;strokeWidth=3;fontSize=16;" parent="1" vertex="1">
                    <mxGeometry x="131" y="110" width="30" height="30" as="geometry"/>
                </mxCell>
                <mxCell id="23" value="User Input" style="text;html=1;strokeColor=none;fillColor=none;align=center;verticalAlign=middle;whiteSpace=wrap;rounded=0;fontFamily=Helvetica;fontSize=16;" parent="1" vertex="1">
                    <mxGeometry x="160" y="110" width="90" height="30" as="geometry"/>
                </mxCell>
                <mxCell id="99" value="Patch" style="rounded=0;whiteSpace=wrap;html=1;labelBackgroundColor=none;fontFamily=Helvetica;strokeWidth=1;fontSize=16;" parent="1" vertex="1">
                    <mxGeometry x="150" y="170" width="80" height="20" as="geometry"/>
                </mxCell>
                <mxCell id="100" value="" style="endArrow=classic;html=1;fontFamily=Helvetica;fontColor=#000000;exitX=0.5;exitY=1;exitDx=0;exitDy=0;edgeStyle=orthogonalEdgeStyle;fontSize=16;" parent="1" source="22" target="99" edge="1">
                    <mxGeometry width="50" height="50" relative="1" as="geometry">
                        <mxPoint x="170" y="140" as="sourcePoint"/>
                        <mxPoint x="310" y="120" as="targetPoint"/>
                    </mxGeometry>
                </mxCell>
                <mxCell id="102" value="" style="rounded=1;whiteSpace=wrap;html=1;fontFamily=Source Code Pro;strokeWidth=3;arcSize=50;fontSize=16;" parent="1" vertex="1">
                    <mxGeometry x="60" y="220" width="220" height="30" as="geometry"/>
                </mxCell>
                <mxCell id="103" value="2" style="ellipse;whiteSpace=wrap;html=1;aspect=fixed;fontFamily=Source Code Pro;strokeWidth=3;fontSize=16;" parent="1" vertex="1">
                    <mxGeometry x="60" y="220" width="30" height="30" as="geometry"/>
                </mxCell>
                <mxCell id="104" value="Calculate Reverse Patch" style="text;html=1;strokeColor=none;fillColor=none;align=center;verticalAlign=middle;whiteSpace=wrap;rounded=0;fontFamily=Helvetica;fontSize=16;" parent="1" vertex="1">
                    <mxGeometry x="90" y="220" width="190" height="30" as="geometry"/>
                </mxCell>
                <mxCell id="105" value="" style="endArrow=classic;html=1;fontFamily=Helvetica;fontColor=#000000;fontSize=16;entryX=0.5;entryY=0;entryDx=0;entryDy=0;edgeStyle=orthogonalEdgeStyle;" parent="1" target="102" edge="1">
                    <mxGeometry width="50" height="50" relative="1" as="geometry">
                        <mxPoint x="190" y="190" as="sourcePoint"/>
                        <mxPoint x="190" y="210" as="targetPoint"/>
                    </mxGeometry>
                </mxCell>
                <mxCell id="108" value="Command Stack" style="rounded=0;whiteSpace=wrap;html=1;labelBackgroundColor=none;fontFamily=Helvetica;fontColor=#000000;strokeColor=#000000;strokeWidth=1;fontStyle=1;fontSize=16;" parent="1" vertex="1">
                    <mxGeometry x="40" y="470" width="160" height="20" as="geometry"/>
                </mxCell>
                <mxCell id="109" value="Patch 1" style="rounded=0;whiteSpace=wrap;html=1;labelBackgroundColor=none;fontFamily=Helvetica;fontColor=#000000;strokeColor=#000000;strokeWidth=1;fontSize=16;" parent="1" vertex="1">
                    <mxGeometry x="40" y="490" width="80" height="20" as="geometry"/>
                </mxCell>
                <mxCell id="111" value="Patch 3" style="rounded=0;whiteSpace=wrap;html=1;labelBackgroundColor=none;fontFamily=Helvetica;fontColor=#000000;strokeColor=#000000;strokeWidth=1;fontSize=16;" parent="1" vertex="1">
                    <mxGeometry x="40" y="510" width="80" height="20" as="geometry"/>
                </mxCell>
                <mxCell id="113" value="" style="endArrow=classic;html=1;fontFamily=Helvetica;fontColor=#000000;entryX=0.5;entryY=0;entryDx=0;entryDy=0;exitX=0.5;exitY=1;exitDx=0;exitDy=0;fontSize=16;" parent="1" source="102" target="112" edge="1">
                    <mxGeometry width="50" height="50" relative="1" as="geometry">
                        <mxPoint x="190" y="250" as="sourcePoint"/>
                        <mxPoint x="220" y="230" as="targetPoint"/>
                    </mxGeometry>
                </mxCell>
                <mxCell id="114" value="Reverse 1" style="rounded=0;whiteSpace=wrap;html=1;labelBackgroundColor=none;fontFamily=Helvetica;fontColor=#000000;strokeColor=#000000;strokeWidth=1;fontSize=16;" parent="1" vertex="1">
                    <mxGeometry x="120" y="490" width="80" height="20" as="geometry"/>
                </mxCell>
                <mxCell id="116" value="Reverse 3" style="rounded=0;whiteSpace=wrap;html=1;labelBackgroundColor=none;fontFamily=Helvetica;fontColor=#000000;strokeColor=#000000;strokeWidth=1;fontSize=16;" parent="1" vertex="1">
                    <mxGeometry x="120" y="510" width="80" height="20" as="geometry"/>
                </mxCell>
                <mxCell id="117" value="" style="endArrow=classic;html=1;fontFamily=Helvetica;fontColor=#000000;exitX=1;exitY=0.5;exitDx=0;exitDy=0;edgeStyle=orthogonalEdgeStyle;fontSize=16;" parent="1" source="5" edge="1">
                    <mxGeometry width="50" height="50" relative="1" as="geometry">
                        <mxPoint x="180.5" y="140" as="sourcePoint"/>
                        <mxPoint x="280" y="235" as="targetPoint"/>
                        <Array as="points">
                            <mxPoint x="310" y="80"/>
                            <mxPoint x="310" y="235"/>
                        </Array>
                    </mxGeometry>
                </mxCell>
                <mxCell id="118" value="&lt;span style=&quot;font-size: 16px ; text-align: left ; background-color: rgb(255 , 255 , 255)&quot;&gt;/api/ws/project/72&lt;br&gt;/&amp;lt;client-uuid&amp;gt;/private&lt;/span&gt;" style="rounded=0;whiteSpace=wrap;html=1;fontColor=default;fontFamily=Source Code Pro;fontSize=16;" parent="1" vertex="1">
                    <mxGeometry x="400" y="790" width="300" height="50" as="geometry"/>
                </mxCell>
                <mxCell id="119" value="" style="endArrow=classic;dashed=1;html=1;fontFamily=Helvetica;fontColor=#000000;dashPattern=1 2;exitX=0.5;exitY=1;exitDx=0;exitDy=0;entryX=0.5;entryY=0;entryDx=0;entryDy=0;endFill=1;fontSize=16;" parent="1" source="204" target="118" edge="1">
                    <mxGeometry width="50" height="50" relative="1" as="geometry">
                        <mxPoint x="400" y="690" as="sourcePoint"/>
                        <mxPoint x="370" y="860" as="targetPoint"/>
                    </mxGeometry>
                </mxCell>
                <mxCell id="120" value="" style="endArrow=classic;html=1;fontFamily=Source Code Pro;dashed=1;edgeStyle=orthogonalEdgeStyle;entryX=0;entryY=0.5;entryDx=0;entryDy=0;fontSize=16;" parent="1" target="26" edge="1">
                    <mxGeometry width="50" height="50" relative="1" as="geometry">
                        <mxPoint x="340" y="320" as="sourcePoint"/>
                        <mxPoint x="690" y="90" as="targetPoint"/>
                        <Array as="points">
                            <mxPoint x="380" y="320"/>
                            <mxPoint x="380" y="120"/>
                        </Array>
                    </mxGeometry>
                </mxCell>
                <mxCell id="121" value="" style="endArrow=classic;html=1;fontFamily=Helvetica;fontColor=#000000;exitX=1;exitY=0.5;exitDx=0;exitDy=0;fontSize=16;" parent="1" source="112" edge="1">
                    <mxGeometry width="50" height="50" relative="1" as="geometry">
                        <mxPoint x="140" y="270" as="sourcePoint"/>
                        <mxPoint x="340" y="320" as="targetPoint"/>
                    </mxGeometry>
                </mxCell>
                <mxCell id="46" value="" style="rounded=1;whiteSpace=wrap;html=1;fontFamily=Source Code Pro;strokeWidth=3;arcSize=50;fontSize=16;" parent="1" vertex="1">
                    <mxGeometry x="440" y="20" width="220" height="30" as="geometry"/>
                </mxCell>
                <mxCell id="47" value="3" style="ellipse;whiteSpace=wrap;html=1;aspect=fixed;fontFamily=Source Code Pro;strokeWidth=3;fontSize=16;" parent="1" vertex="1">
                    <mxGeometry x="440" y="20" width="30" height="30" as="geometry"/>
                </mxCell>
                <mxCell id="48" value="Submit Patch via HTTP" style="text;html=1;strokeColor=none;fillColor=none;align=center;verticalAlign=middle;whiteSpace=wrap;rounded=0;fontFamily=Helvetica;fontSize=16;" parent="1" vertex="1">
                    <mxGeometry x="470" y="20" width="190" height="30" as="geometry"/>
                </mxCell>
                <mxCell id="122" value="History" style="rounded=0;whiteSpace=wrap;html=1;labelBackgroundColor=none;fontFamily=Helvetica;fontColor=#000000;strokeColor=#000000;strokeWidth=1;fontStyle=1;fontSize=16;" parent="1" vertex="1">
                    <mxGeometry x="90" y="570" width="160" height="20" as="geometry"/>
                </mxCell>
                <mxCell id="123" value="Patch 1" style="rounded=0;whiteSpace=wrap;html=1;labelBackgroundColor=none;fontFamily=Helvetica;fontColor=#000000;strokeColor=#000000;strokeWidth=1;fontSize=16;" parent="1" vertex="1">
                    <mxGeometry x="90" y="590" width="80" height="20" as="geometry"/>
                </mxCell>
                <mxCell id="124" value="Patch 2" style="rounded=0;whiteSpace=wrap;html=1;labelBackgroundColor=none;fontFamily=Helvetica;fontColor=#000000;strokeColor=#000000;strokeWidth=1;fontSize=16;" parent="1" vertex="1">
                    <mxGeometry x="90" y="610" width="80" height="20" as="geometry"/>
                </mxCell>
                <mxCell id="125" value="Patch 3" style="rounded=0;whiteSpace=wrap;html=1;labelBackgroundColor=none;fontFamily=Helvetica;fontColor=#000000;strokeColor=#000000;strokeWidth=1;fontSize=16;" parent="1" vertex="1">
                    <mxGeometry x="90" y="630" width="80" height="20" as="geometry"/>
                </mxCell>
                <mxCell id="126" value="Reverse 1" style="rounded=0;whiteSpace=wrap;html=1;labelBackgroundColor=none;fontFamily=Helvetica;fontColor=#000000;strokeColor=#000000;strokeWidth=1;fontSize=16;" parent="1" vertex="1">
                    <mxGeometry x="170" y="590" width="80" height="20" as="geometry"/>
                </mxCell>
                <mxCell id="127" value="Reverse 2" style="rounded=0;whiteSpace=wrap;html=1;labelBackgroundColor=none;fontFamily=Helvetica;fontColor=#000000;strokeColor=#000000;strokeWidth=1;fontSize=16;" parent="1" vertex="1">
                    <mxGeometry x="170" y="610" width="80" height="20" as="geometry"/>
                </mxCell>
                <mxCell id="128" value="Reverse 3" style="rounded=0;whiteSpace=wrap;html=1;labelBackgroundColor=none;fontFamily=Helvetica;fontColor=#000000;strokeColor=#000000;strokeWidth=1;fontSize=16;" parent="1" vertex="1">
                    <mxGeometry x="170" y="630" width="80" height="20" as="geometry"/>
                </mxCell>
                <mxCell id="129" value="" style="rounded=0;whiteSpace=wrap;html=1;fontFamily=Source Code Pro;strokeWidth=1;align=left;verticalAlign=top;spacingTop=0;fontSize=16;" parent="1" vertex="1">
                    <mxGeometry x="420" y="390" width="260" height="100" as="geometry"/>
                </mxCell>
                <mxCell id="130" value="&lt;span style=&quot;color: rgb(0, 0, 0); font-family: &amp;quot;source code pro&amp;quot;; font-size: 16px; font-style: normal; font-weight: 400; letter-spacing: normal; text-align: left; text-indent: 0px; text-transform: none; word-spacing: 0px; display: inline; float: none;&quot;&gt;HTTP Response&lt;/span&gt;" style="text;html=1;align=center;verticalAlign=middle;whiteSpace=wrap;rounded=0;fontFamily=Source Code Pro;labelBackgroundColor=none;strokeColor=default;fontSize=16;" parent="1" vertex="1">
                    <mxGeometry x="420" y="390" width="260" height="20" as="geometry"/>
                </mxCell>
                <mxCell id="133" value="" style="endArrow=classic;html=1;fontFamily=Source Code Pro;dashed=1;edgeStyle=orthogonalEdgeStyle;entryX=1;entryY=0.5;entryDx=0;entryDy=0;fontSize=16;" parent="1" target="129" edge="1">
                    <mxGeometry width="50" height="50" relative="1" as="geometry">
                        <mxPoint x="760" y="150" as="sourcePoint"/>
                        <mxPoint x="680" y="390" as="targetPoint"/>
                        <Array as="points">
                            <mxPoint x="720" y="150"/>
                            <mxPoint x="720" y="440"/>
                        </Array>
                    </mxGeometry>
                </mxCell>
                <mxCell id="134" value="" style="rounded=1;whiteSpace=wrap;html=1;fontFamily=Source Code Pro;strokeWidth=3;arcSize=50;fontSize=16;" parent="1" vertex="1">
                    <mxGeometry x="480" y="340" width="140" height="30" as="geometry"/>
                </mxCell>
                <mxCell id="135" value="10" style="ellipse;whiteSpace=wrap;html=1;aspect=fixed;fontFamily=Source Code Pro;strokeWidth=3;fontSize=16;" parent="1" vertex="1">
                    <mxGeometry x="480" y="340" width="30" height="30" as="geometry"/>
                </mxCell>
                <mxCell id="136" value="Return Patch" style="text;html=1;strokeColor=none;fillColor=none;align=center;verticalAlign=middle;whiteSpace=wrap;rounded=0;fontFamily=Helvetica;fontSize=16;" parent="1" vertex="1">
                    <mxGeometry x="510" y="340" width="110" height="30" as="geometry"/>
                </mxCell>
                <mxCell id="137" value="" style="endArrow=classic;html=1;fontFamily=Source Code Pro;dashed=1;exitX=0;exitY=0.5;exitDx=0;exitDy=0;edgeStyle=orthogonalEdgeStyle;fontSize=16;" parent="1" source="129" edge="1">
                    <mxGeometry width="50" height="50" relative="1" as="geometry">
                        <mxPoint x="690" y="240.00000000000023" as="sourcePoint"/>
                        <mxPoint x="340" y="440" as="targetPoint"/>
                        <Array as="points">
                            <mxPoint x="370" y="440"/>
                            <mxPoint x="370" y="440"/>
                        </Array>
                    </mxGeometry>
                </mxCell>
                <mxCell id="138" value="" style="endArrow=classic;html=1;fontFamily=Helvetica;fontColor=#000000;entryX=0;entryY=0.5;entryDx=0;entryDy=0;edgeStyle=orthogonalEdgeStyle;fontSize=16;" parent="1" target="5" edge="1">
                    <mxGeometry width="50" height="50" relative="1" as="geometry">
                        <mxPoint x="340" y="440" as="sourcePoint"/>
                        <mxPoint x="350" y="310" as="targetPoint"/>
                        <Array as="points">
                            <mxPoint x="20" y="440"/>
                            <mxPoint x="20" y="80"/>
                        </Array>
                    </mxGeometry>
                </mxCell>
                <mxCell id="139" value="" style="rounded=1;whiteSpace=wrap;html=1;fontFamily=Source Code Pro;strokeWidth=3;arcSize=50;fontSize=16;" parent="1" vertex="1">
                    <mxGeometry x="120" y="400" width="140" height="30" as="geometry"/>
                </mxCell>
                <mxCell id="140" value="11" style="ellipse;whiteSpace=wrap;html=1;aspect=fixed;fontFamily=Source Code Pro;strokeWidth=3;fontSize=16;" parent="1" vertex="1">
                    <mxGeometry x="120" y="400" width="30" height="30" as="geometry"/>
                </mxCell>
                <mxCell id="141" value="Apply Patch" style="text;html=1;strokeColor=none;fillColor=none;align=center;verticalAlign=middle;whiteSpace=wrap;rounded=0;fontFamily=Helvetica;fontSize=16;" parent="1" vertex="1">
                    <mxGeometry x="140" y="400" width="120" height="30" as="geometry"/>
                </mxCell>
                <mxCell id="142" value="" style="endArrow=classic;html=1;fontFamily=Helvetica;fontColor=#000000;entryX=1;entryY=0.5;entryDx=0;entryDy=0;edgeStyle=orthogonalEdgeStyle;fontSize=16;" parent="1" target="114" edge="1">
                    <mxGeometry width="50" height="50" relative="1" as="geometry">
                        <mxPoint x="340" y="440" as="sourcePoint"/>
                        <mxPoint x="350" y="360" as="targetPoint"/>
                        <Array as="points">
                            <mxPoint x="300" y="440"/>
                            <mxPoint x="300" y="500"/>
                        </Array>
                    </mxGeometry>
                </mxCell>
                <mxCell id="143" value="" style="rounded=1;whiteSpace=wrap;html=1;fontFamily=Source Code Pro;strokeWidth=3;arcSize=50;fontSize=16;" parent="1" vertex="1">
                    <mxGeometry x="210" y="510" width="120" height="30" as="geometry"/>
                </mxCell>
                <mxCell id="144" value="12" style="ellipse;whiteSpace=wrap;html=1;aspect=fixed;fontFamily=Source Code Pro;strokeWidth=3;fontSize=16;" parent="1" vertex="1">
                    <mxGeometry x="210" y="510" width="30" height="30" as="geometry"/>
                </mxCell>
                <mxCell id="145" value="Add Patch" style="text;html=1;strokeColor=none;fillColor=none;align=center;verticalAlign=middle;whiteSpace=wrap;rounded=0;fontFamily=Helvetica;fontSize=16;" parent="1" vertex="1">
                    <mxGeometry x="240" y="510" width="90" height="30" as="geometry"/>
                </mxCell>
                <mxCell id="146" value="" style="endArrow=classic;dashed=1;html=1;fontFamily=Helvetica;fontColor=#000000;dashPattern=1 2;exitX=0;exitY=0.5;exitDx=0;exitDy=0;edgeStyle=orthogonalEdgeStyle;endFill=1;fontSize=16;" parent="1" source="118" edge="1">
                    <mxGeometry width="50" height="50" relative="1" as="geometry">
                        <mxPoint x="370" y="700" as="sourcePoint"/>
                        <mxPoint x="170" y="740" as="targetPoint"/>
                    </mxGeometry>
                </mxCell>
                <mxCell id="147" value="" style="endArrow=classic;html=1;fontFamily=Helvetica;fontColor=#000000;edgeStyle=orthogonalEdgeStyle;fontSize=16;entryX=1;entryY=1;entryDx=0;entryDy=0;exitX=0.5;exitY=1;exitDx=0;exitDy=0;" parent="1" source="151" target="125" edge="1">
                    <mxGeometry width="50" height="50" relative="1" as="geometry">
                        <mxPoint x="170" y="700" as="sourcePoint"/>
                        <mxPoint x="100" y="690" as="targetPoint"/>
                        <Array as="points"/>
                    </mxGeometry>
                </mxCell>
                <mxCell id="148" value="" style="rounded=1;whiteSpace=wrap;html=1;fontFamily=Source Code Pro;strokeWidth=3;arcSize=50;fontSize=16;" parent="1" vertex="1">
                    <mxGeometry x="180" y="660" width="120" height="30" as="geometry"/>
                </mxCell>
                <mxCell id="149" value="7" style="ellipse;whiteSpace=wrap;html=1;aspect=fixed;fontFamily=Source Code Pro;strokeWidth=3;fontSize=16;" parent="1" vertex="1">
                    <mxGeometry x="180" y="660" width="30" height="30" as="geometry"/>
                </mxCell>
                <mxCell id="150" value="Add Patch" style="text;html=1;strokeColor=none;fillColor=none;align=center;verticalAlign=middle;whiteSpace=wrap;rounded=0;fontFamily=Helvetica;fontSize=16;" parent="1" vertex="1">
                    <mxGeometry x="210" y="660" width="90" height="30" as="geometry"/>
                </mxCell>
                <mxCell id="152" value="" style="rounded=0;whiteSpace=wrap;html=1;labelBackgroundColor=none;fontFamily=Helvetica;fontColor=#000000;strokeColor=#000000;strokeWidth=1;fontSize=16;" parent="1" vertex="1">
                    <mxGeometry x="810" y="520" width="240" height="480" as="geometry"/>
                </mxCell>
                <mxCell id="153" value="Other Client Session" style="rounded=0;whiteSpace=wrap;html=1;fontStyle=1;fontSize=16;" parent="1" vertex="1">
                    <mxGeometry x="810" y="520" width="170" height="20" as="geometry"/>
                </mxCell>
                <mxCell id="154" value="" style="rounded=1;whiteSpace=wrap;html=1;fontFamily=Source Code Pro;strokeWidth=3;arcSize=50;fontSize=16;" parent="1" vertex="1">
                    <mxGeometry x="859.5" y="560" width="140.5" height="30" as="geometry"/>
                </mxCell>
                <mxCell id="155" value="8" style="ellipse;whiteSpace=wrap;html=1;aspect=fixed;fontFamily=Source Code Pro;strokeWidth=3;fontSize=16;" parent="1" vertex="1">
                    <mxGeometry x="859.5" y="560" width="30" height="30" as="geometry"/>
                </mxCell>
                <mxCell id="156" value="Apply Patch" style="text;html=1;strokeColor=none;fillColor=none;align=center;verticalAlign=middle;whiteSpace=wrap;rounded=0;fontFamily=Helvetica;fontSize=16;" parent="1" vertex="1">
                    <mxGeometry x="890" y="560" width="110" height="30" as="geometry"/>
                </mxCell>
                <mxCell id="160" value="" style="rounded=1;whiteSpace=wrap;html=1;fontFamily=Source Code Pro;strokeWidth=3;arcSize=50;fontSize=16;" parent="1" vertex="1">
                    <mxGeometry x="869.5" y="830" width="120.5" height="30" as="geometry"/>
                </mxCell>
                <mxCell id="161" value="9" style="ellipse;whiteSpace=wrap;html=1;aspect=fixed;fontFamily=Source Code Pro;strokeWidth=3;fontSize=16;" parent="1" vertex="1">
                    <mxGeometry x="869.5" y="830" width="30" height="30" as="geometry"/>
                </mxCell>
                <mxCell id="162" value="Add Patch" style="text;html=1;strokeColor=none;fillColor=none;align=center;verticalAlign=middle;whiteSpace=wrap;rounded=0;fontFamily=Helvetica;fontSize=16;" parent="1" vertex="1">
                    <mxGeometry x="899.5" y="830" width="90.5" height="30" as="geometry"/>
                </mxCell>
                <mxCell id="59" value="" style="rounded=1;whiteSpace=wrap;html=1;fontFamily=Source Code Pro;strokeWidth=3;arcSize=50;fontSize=16;" parent="1" vertex="1">
                    <mxGeometry x="810" y="40" width="240" height="30" as="geometry"/>
                </mxCell>
                <mxCell id="60" value="4" style="ellipse;whiteSpace=wrap;html=1;aspect=fixed;fontFamily=Source Code Pro;strokeWidth=3;fontSize=16;" parent="1" vertex="1">
                    <mxGeometry x="810" y="40" width="30" height="30" as="geometry"/>
                </mxCell>
                <mxCell id="61" value="Recalculate Reverse Patch" style="text;html=1;strokeColor=none;fillColor=none;align=center;verticalAlign=middle;whiteSpace=wrap;rounded=0;fontFamily=Helvetica;fontSize=16;" parent="1" vertex="1">
                    <mxGeometry x="840" y="40" width="210" height="30" as="geometry"/>
                </mxCell>
                <mxCell id="178" value="" style="group;fontSize=16;" parent="1" vertex="1" connectable="0">
                    <mxGeometry x="869.5" y="630" width="120" height="80" as="geometry"/>
                </mxCell>
                <mxCell id="179" value="" style="rounded=0;whiteSpace=wrap;html=1;fontSize=16;" parent="178" vertex="1">
                    <mxGeometry width="120" height="80" as="geometry"/>
                </mxCell>
                <mxCell id="180" value="" style="rounded=1;whiteSpace=wrap;html=1;fillColor=#f8cecc;strokeColor=#b85450;fontSize=16;" parent="178" vertex="1">
                    <mxGeometry x="40" y="10" width="40" height="20" as="geometry"/>
                </mxCell>
                <mxCell id="181" value="" style="rounded=1;whiteSpace=wrap;html=1;fillColor=#d5e8d4;strokeColor=#82b366;fontSize=16;" parent="178" vertex="1">
                    <mxGeometry x="75" y="40" width="40" height="20" as="geometry"/>
                </mxCell>
                <mxCell id="182" style="edgeStyle=orthogonalEdgeStyle;html=1;entryX=0.5;entryY=0;entryDx=0;entryDy=0;fontSize=16;exitX=1;exitY=0.5;exitDx=0;exitDy=0;" parent="178" source="180" target="181" edge="1">
                    <mxGeometry relative="1" as="geometry">
                        <mxPoint x="45" y="20" as="targetPoint"/>
                    </mxGeometry>
                </mxCell>
                <mxCell id="183" value="" style="rounded=1;whiteSpace=wrap;html=1;fillColor=#dae8fc;strokeColor=#6c8ebf;fontSize=16;" parent="178" vertex="1">
                    <mxGeometry x="5" y="50" width="40" height="20" as="geometry"/>
                </mxCell>
                <mxCell id="184" style="edgeStyle=orthogonalEdgeStyle;html=1;fontSize=16;" parent="178" source="181" target="183" edge="1">
                    <mxGeometry relative="1" as="geometry"/>
                </mxCell>
                <mxCell id="185" value="72" style="rounded=0;whiteSpace=wrap;html=1;labelBackgroundColor=none;fontFamily=Source Code Pro;strokeWidth=1;fontSize=16;" parent="178" vertex="1">
                    <mxGeometry width="30" height="30" as="geometry"/>
                </mxCell>
                <mxCell id="186" value="Command Stack" style="rounded=0;whiteSpace=wrap;html=1;labelBackgroundColor=none;fontFamily=Helvetica;fontColor=#000000;strokeColor=#000000;strokeWidth=1;fontStyle=1;fontSize=16;" parent="1" vertex="1">
                    <mxGeometry x="850" y="750" width="160" height="20" as="geometry"/>
                </mxCell>
                <mxCell id="187" value="Patch 2" style="rounded=0;whiteSpace=wrap;html=1;labelBackgroundColor=none;fontFamily=Helvetica;fontColor=#000000;strokeColor=#000000;strokeWidth=1;fontSize=16;" parent="1" vertex="1">
                    <mxGeometry x="850" y="770" width="79.5" height="20" as="geometry"/>
                </mxCell>
                <mxCell id="189" value="Reverse 2" style="rounded=0;whiteSpace=wrap;html=1;labelBackgroundColor=none;fontFamily=Helvetica;fontColor=#000000;strokeColor=#000000;strokeWidth=1;fontSize=16;" parent="1" vertex="1">
                    <mxGeometry x="929.5" y="770" width="80.5" height="20" as="geometry"/>
                </mxCell>
                <mxCell id="191" value="History" style="rounded=0;whiteSpace=wrap;html=1;labelBackgroundColor=none;fontFamily=Helvetica;fontColor=#000000;strokeColor=#000000;strokeWidth=1;fontStyle=1;fontSize=16;" parent="1" vertex="1">
                    <mxGeometry x="850" y="900" width="160" height="20" as="geometry"/>
                </mxCell>
                <mxCell id="193" value="Patch 2" style="rounded=0;whiteSpace=wrap;html=1;labelBackgroundColor=none;fontFamily=Helvetica;fontColor=#000000;strokeColor=#000000;strokeWidth=1;fontSize=16;" parent="1" vertex="1">
                    <mxGeometry x="850" y="920" width="79.5" height="20" as="geometry"/>
                </mxCell>
                <mxCell id="194" value="Patch 3" style="rounded=0;whiteSpace=wrap;html=1;labelBackgroundColor=none;fontFamily=Helvetica;fontColor=#000000;strokeColor=#000000;strokeWidth=1;fontSize=16;" parent="1" vertex="1">
                    <mxGeometry x="850" y="940" width="79.5" height="20" as="geometry"/>
                </mxCell>
                <mxCell id="196" value="Reverse 2" style="rounded=0;whiteSpace=wrap;html=1;labelBackgroundColor=none;fontFamily=Helvetica;fontColor=#000000;strokeColor=#000000;strokeWidth=1;fontSize=16;" parent="1" vertex="1">
                    <mxGeometry x="929.5" y="920" width="80.5" height="20" as="geometry"/>
                </mxCell>
                <mxCell id="197" value="Reverse 3" style="rounded=0;whiteSpace=wrap;html=1;labelBackgroundColor=none;fontFamily=Helvetica;fontColor=#000000;strokeColor=#000000;strokeWidth=1;fontSize=16;" parent="1" vertex="1">
                    <mxGeometry x="929.5" y="940" width="80.5" height="20" as="geometry"/>
                </mxCell>
                <mxCell id="199" value="" style="endArrow=classic;dashed=1;html=1;fontFamily=Helvetica;fontColor=#000000;dashPattern=1 2;exitX=1;exitY=0.5;exitDx=0;exitDy=0;edgeStyle=orthogonalEdgeStyle;endFill=1;fontSize=16;entryX=0;entryY=0.114;entryDx=0;entryDy=0;entryPerimeter=0;" parent="1" source="118" target="152" edge="1">
                    <mxGeometry width="50" height="50" relative="1" as="geometry">
                        <mxPoint x="180" y="690" as="sourcePoint"/>
                        <mxPoint x="790" y="700" as="targetPoint"/>
                        <Array as="points">
                            <mxPoint x="770" y="815"/>
                            <mxPoint x="770" y="575"/>
                            <mxPoint x="810" y="575"/>
                        </Array>
                    </mxGeometry>
                </mxCell>
                <mxCell id="200" value="" style="endArrow=classic;html=1;fontFamily=Helvetica;fontColor=#000000;edgeStyle=orthogonalEdgeStyle;entryX=0;entryY=0.5;entryDx=0;entryDy=0;fontSize=16;" parent="1" target="155" edge="1">
                    <mxGeometry width="50" height="50" relative="1" as="geometry">
                        <mxPoint x="810" y="575" as="sourcePoint"/>
                        <mxPoint x="1139.5" y="580" as="targetPoint"/>
                        <Array as="points"/>
                    </mxGeometry>
                </mxCell>
                <mxCell id="201" value="" style="endArrow=classic;html=1;fontFamily=Helvetica;fontColor=#000000;edgeStyle=orthogonalEdgeStyle;exitX=0.5;exitY=1;exitDx=0;exitDy=0;entryX=0.5;entryY=0;entryDx=0;entryDy=0;fontSize=16;" parent="1" source="160" target="191" edge="1">
                    <mxGeometry width="50" height="50" relative="1" as="geometry">
                        <mxPoint x="1019.4999999999947" y="900" as="sourcePoint"/>
                        <mxPoint x="999.5" y="900" as="targetPoint"/>
                        <Array as="points">
                            <mxPoint x="930" y="860"/>
                        </Array>
                    </mxGeometry>
                </mxCell>
                <mxCell id="202" value="" style="endArrow=classic;html=1;fontFamily=Helvetica;fontColor=#000000;edgeStyle=orthogonalEdgeStyle;entryX=0.5;entryY=0;entryDx=0;entryDy=0;exitX=0.5;exitY=1;exitDx=0;exitDy=0;fontSize=16;" parent="1" source="154" target="179" edge="1">
                    <mxGeometry width="50" height="50" relative="1" as="geometry">
                        <mxPoint x="1009.5" y="670" as="sourcePoint"/>
                        <mxPoint x="989.5" y="670" as="targetPoint"/>
                        <Array as="points"/>
                    </mxGeometry>
                </mxCell>
                <mxCell id="203" value="" style="endArrow=classic;html=1;fontFamily=Helvetica;fontColor=#000000;edgeStyle=orthogonalEdgeStyle;entryX=0;entryY=0.5;entryDx=0;entryDy=0;fontSize=16;" parent="1" target="161" edge="1">
                    <mxGeometry width="50" height="50" relative="1" as="geometry">
                        <mxPoint x="809" y="575" as="sourcePoint"/>
                        <mxPoint x="1099.5" y="600" as="targetPoint"/>
                        <Array as="points">
                            <mxPoint x="809" y="575"/>
                            <mxPoint x="830" y="575"/>
                            <mxPoint x="830" y="845"/>
                        </Array>
                    </mxGeometry>
                </mxCell>
                <mxCell id="205" value="&lt;span style=&quot;color: rgb(0, 0, 0); font-family: &amp;quot;source code pro&amp;quot;; font-size: 16px; font-style: normal; font-weight: 400; letter-spacing: normal; text-align: left; text-indent: 0px; text-transform: none; word-spacing: 0px; display: inline; float: none;&quot;&gt;Websocket Message&lt;/span&gt;" style="text;html=1;align=center;verticalAlign=middle;whiteSpace=wrap;rounded=0;fontFamily=Source Code Pro;labelBackgroundColor=none;strokeColor=default;fontSize=16;" parent="1" vertex="1">
                    <mxGeometry x="420" y="650" width="260" height="20" as="geometry"/>
                </mxCell>
                <mxCell id="206" value="" style="rounded=0;whiteSpace=wrap;html=1;fontFamily=Source Code Pro;strokeWidth=1;align=left;verticalAlign=top;spacingTop=0;fontSize=16;" parent="1" vertex="1">
                    <mxGeometry x="800" y="110" width="260" height="80" as="geometry"/>
                </mxCell>
                <mxCell id="208" value="Patch" style="rounded=0;whiteSpace=wrap;html=1;labelBackgroundColor=none;fontFamily=Helvetica;strokeWidth=1;fontSize=16;" parent="1" vertex="1">
                    <mxGeometry x="810" y="120" width="120" height="60" as="geometry"/>
                </mxCell>
                <mxCell id="209" value="Reverse Patch&lt;br style=&quot;font-size: 16px&quot;&gt;(Server)" style="rounded=0;whiteSpace=wrap;html=1;labelBackgroundColor=none;fontFamily=Helvetica;strokeWidth=1;strokeColor=#000000;fontColor=#000000;fontSize=16;" parent="1" vertex="1">
                    <mxGeometry x="930" y="120" width="120" height="60" as="geometry"/>
                </mxCell>
                <mxCell id="210" value="Reverse Patch&lt;br style=&quot;font-size: 16px&quot;&gt;(Server)" style="rounded=0;whiteSpace=wrap;html=1;labelBackgroundColor=none;fontFamily=Helvetica;strokeWidth=1;strokeColor=#000000;fontColor=#000000;fontSize=16;" parent="1" vertex="1">
                    <mxGeometry x="550" y="420" width="120" height="60" as="geometry"/>
                </mxCell>
                <mxCell id="211" value="Patch" style="rounded=0;whiteSpace=wrap;html=1;labelBackgroundColor=none;fontFamily=Helvetica;strokeWidth=1;fontSize=16;" parent="1" vertex="1">
                    <mxGeometry x="430" y="420" width="120" height="60" as="geometry"/>
                </mxCell>
                <mxCell id="212" value="Patch" style="rounded=0;whiteSpace=wrap;html=1;labelBackgroundColor=none;fontFamily=Helvetica;strokeWidth=1;fontSize=16;" parent="1" vertex="1">
                    <mxGeometry x="430" y="680" width="120" height="60" as="geometry"/>
                </mxCell>
                <mxCell id="213" value="Reverse Patch&lt;br style=&quot;font-size: 16px&quot;&gt;(Server)" style="rounded=0;whiteSpace=wrap;html=1;labelBackgroundColor=none;fontFamily=Helvetica;strokeWidth=1;strokeColor=#000000;fontColor=#000000;fontSize=16;" parent="1" vertex="1">
                    <mxGeometry x="550" y="680" width="120" height="60" as="geometry"/>
                </mxCell>
                <mxCell id="215" value="Patch" style="rounded=0;whiteSpace=wrap;html=1;labelBackgroundColor=none;fontFamily=Helvetica;strokeWidth=1;fontSize=16;" parent="1" vertex="1">
                    <mxGeometry x="50" y="290" width="120" height="60" as="geometry"/>
                </mxCell>
                <mxCell id="216" value="Reverse Patch&lt;br style=&quot;font-size: 16px;&quot;&gt;(Client)" style="rounded=0;whiteSpace=wrap;html=1;labelBackgroundColor=none;fontFamily=Helvetica;strokeWidth=1;strokeColor=#666666;fontColor=#666666;fontSize=16;" parent="1" vertex="1">
                    <mxGeometry x="170" y="290" width="120" height="60" as="geometry"/>
                </mxCell>
            </root>
        </mxGraphModel>
    </diagram>
</mxfile>
